<svg width="31" height="28" viewBox="0 0 31 28" fill="none" xmlns="http://www.w3.org/2000/svg">
<path d="M11.6953 25.9844C10.7109 25.9844 9.72656 25.8984 8.74219 25.7266C7.76562 25.5547 6.875 25.3203 6.07031 25.0234C5.26562 24.7344 4.62109 24.4023 4.13672 24.0273C3.65234 23.6602 3.41016 23.2812 3.41016 22.8906C3.41016 22.6016 3.51172 22.2539 3.71484 21.8477C3.92578 21.4336 4.20312 21.0625 4.54688 20.7344L6.58594 10.4102L7.40625 10.832L5.36719 21.2148C5.03125 21.457 4.76562 21.7461 4.57031 22.082C4.375 22.418 4.26953 22.6758 4.25391 22.8555C5.48828 22.8555 6.65625 22.9219 7.75781 23.0547C8.86719 23.1875 9.94531 23.3945 10.9922 23.6758C12.0469 23.957 13.0977 24.3203 14.1445 24.7656C14.1914 24.7188 14.2422 24.6211 14.2969 24.4727C14.3516 24.332 14.3789 24.2227 14.3789 24.1445C14.3789 23.7383 14.2188 23.2812 13.8984 22.7734L16.2422 12.7773L17.1914 12.8477L14.8828 22.6797C15 22.8516 15.0977 23.0703 15.1758 23.3359C15.2617 23.6016 15.3047 23.8711 15.3047 24.1445C15.3047 24.5352 15.1836 24.8672 14.9414 25.1406C14.707 25.4219 14.3242 25.6328 13.793 25.7734C13.2617 25.9141 12.5625 25.9844 11.6953 25.9844ZM5.17969 20.5C3.98438 20.3047 3.03516 19.9336 2.33203 19.3867C1.63672 18.832 1.28906 18.1836 1.28906 17.4414C1.28906 16.957 1.34766 16.3984 1.46484 15.7656C1.58984 15.1328 1.75 14.5039 1.94531 13.8789C2.14062 13.2461 2.34766 12.6992 2.56641 12.2383C2.79297 11.7695 3.00781 11.4648 3.21094 11.3242C3.69531 10.9883 4.32031 10.8203 5.08594 10.8203C5.64844 10.8203 6.24609 10.9141 6.87891 11.1016L6.66797 11.8281C6.09766 11.6562 5.5625 11.5703 5.0625 11.5703C4.46875 11.5703 3.99219 11.6914 3.63281 11.9336C3.48438 12.0352 3.31641 12.3008 3.12891 12.7305C2.94922 13.1523 2.77734 13.6523 2.61328 14.2305C2.44922 14.8086 2.3125 15.3867 2.20312 15.9648C2.09375 16.543 2.03906 17.0352 2.03906 17.4414C2.03906 17.9727 2.32812 18.4531 2.90625 18.8828C3.49219 19.3047 4.28906 19.5938 5.29688 19.75L5.17969 20.5ZM5.46094 18.707C3.85938 18.4883 3.05859 18.0117 3.05859 17.2773C3.05859 16.9805 3.10156 16.5977 3.1875 16.1289C3.28125 15.6523 3.39844 15.1719 3.53906 14.6875C3.67969 14.2031 3.82422 13.7812 3.97266 13.4219C4.12109 13.0625 4.25391 12.8438 4.37109 12.7656C4.55078 12.6484 4.80078 12.5898 5.12109 12.5898C5.53516 12.5898 6.03516 12.6797 6.62109 12.8594L6.41016 13.5859C6.12109 13.4922 5.86328 13.4258 5.63672 13.3867C5.41016 13.3477 5.22656 13.3281 5.08594 13.3281C4.94531 13.3281 4.84766 13.3438 4.79297 13.375C4.72266 13.4219 4.63281 13.6094 4.52344 13.9375C4.41406 14.2578 4.30469 14.6406 4.19531 15.0859C4.08594 15.5234 3.99219 15.9453 3.91406 16.3516C3.84375 16.7578 3.80859 17.0664 3.80859 17.2773C3.80859 17.3945 3.96094 17.5195 4.26562 17.6523C4.57812 17.7852 5.00781 17.8867 5.55469 17.957L5.46094 18.707ZM9.52734 19.6328C9.68359 19.6328 9.81641 19.5781 9.92578 19.4688C10.0352 19.3594 10.0898 19.2266 10.0898 19.0703C10.0898 18.9141 10.0352 18.7812 9.92578 18.6719C9.81641 18.5625 9.68359 18.5078 9.52734 18.5078C9.37109 18.5078 9.23828 18.5625 9.12891 18.6719C9.01953 18.7812 8.96484 18.9141 8.96484 19.0703C8.96484 19.2266 9.01953 19.3594 9.12891 19.4688C9.23828 19.5781 9.37109 19.6328 9.52734 19.6328ZM12.668 22.1758C11.7539 21.832 10.8125 21.5703 9.84375 21.3906C8.875 21.2031 7.84766 21.0898 6.76172 21.0508L8.40234 12.8008C8.68359 12.8008 9.02344 12.8164 9.42188 12.8477C9.82031 12.8789 10.2148 12.918 10.6055 12.9648C10.9961 13.0117 11.3125 13.0625 11.5547 13.1172L10.6523 16.8789L11.7422 18.3555L13.0195 17.3945L13.957 13.4688L14.6484 13.7383L12.668 22.1758ZM9.35156 15.7188C9.46094 15.7188 9.55469 15.6797 9.63281 15.6016C9.71875 15.5156 9.76172 15.4141 9.76172 15.2969C9.76172 15.1797 9.71875 15.082 9.63281 15.0039C9.55469 14.918 9.46094 14.875 9.35156 14.875C9.23438 14.875 9.13672 14.918 9.05859 15.0039C8.98047 15.082 8.94141 15.1797 8.94141 15.2969C8.94141 15.4141 8.98047 15.5156 9.05859 15.6016C9.13672 15.6797 9.23438 15.7188 9.35156 15.7188ZM11.8242 17.793C12.0117 17.793 12.1836 17.7266 12.3398 17.5938C12.5039 17.4609 12.6484 17.2695 12.7734 17.0195C12.8984 16.7617 12.9922 16.4453 13.0547 16.0703C13.2578 14.9062 13.5312 13.9648 13.875 13.2461C14.2188 12.5273 14.7461 12.168 15.457 12.168C15.6992 12.168 15.8789 12.207 15.9961 12.2852C16.1133 12.3633 16.2227 12.4453 16.3242 12.5312C16.4336 12.6094 16.5859 12.6484 16.7812 12.6484C17.0547 12.6484 17.2891 12.5273 17.4844 12.2852C17.6797 12.043 17.7773 11.7422 17.7773 11.3828C17.7773 10.8438 17.543 10.4375 17.0742 10.1641C16.6055 9.89062 15.8828 9.75391 14.9062 9.75391C14.5391 9.05078 14.0859 8.53516 13.5469 8.20703C13.0078 7.87891 12.4141 7.71484 11.7656 7.71484C11.0469 7.71484 10.2891 7.90234 9.49219 8.27734C9.10938 8.12109 8.74219 8.04297 8.39062 8.04297C7.98438 8.04297 7.63672 8.15625 7.34766 8.38281C7.05859 8.60938 6.91406 8.9375 6.91406 9.36719C6.91406 9.83594 7.07422 10.1641 7.39453 10.3516C7.72266 10.5391 8.14844 10.6328 8.67188 10.6328C9.01562 10.6328 9.35156 10.6133 9.67969 10.5742C10.0156 10.5352 10.2812 10.5156 10.4766 10.5156C11.0781 10.5156 11.5352 10.6758 11.8477 10.9961C12.1602 11.3164 12.3164 11.8047 12.3164 12.4609C12.3164 12.9141 12.2188 13.4219 12.0234 13.9844C11.8359 14.5469 11.6445 15.1016 11.4492 15.6484C11.2617 16.1953 11.168 16.6797 11.168 17.1016C11.168 17.2812 11.2266 17.4414 11.3438 17.582C11.4688 17.7227 11.6289 17.793 11.8242 17.793ZM11.8125 18.5781C11.4062 18.5781 11.0664 18.4492 10.793 18.1914C10.5195 17.9258 10.3828 17.5781 10.3828 17.1484C10.3828 16.7734 10.4727 16.3164 10.6523 15.7773C10.832 15.2305 11.0078 14.6641 11.1797 14.0781C11.3594 13.4844 11.4492 12.9336 11.4492 12.4258C11.4492 12.0352 11.3164 11.7773 11.0508 11.6523C10.793 11.5195 10.4922 11.4531 10.1484 11.4531C9.92188 11.4531 9.65234 11.4766 9.33984 11.5234C9.02734 11.5703 8.71094 11.5938 8.39062 11.5938C7.64844 11.5938 7.05859 11.4062 6.62109 11.0312C6.19141 10.6562 5.97656 10.1016 5.97656 9.36719C5.97656 8.67188 6.19531 8.13281 6.63281 7.75C7.07031 7.35938 7.64844 7.16406 8.36719 7.16406C8.73438 7.16406 9.09766 7.22266 9.45703 7.33984C9.86328 7.15234 10.2695 7.01172 10.6758 6.91797C11.082 6.82422 11.4766 6.77734 11.8594 6.77734C12.6172 6.77734 13.3203 6.95703 13.9688 7.31641C14.6172 7.66797 15.1523 8.21094 15.5742 8.94531C16.5195 8.95312 17.2773 9.17578 17.8477 9.61328C18.4258 10.043 18.7148 10.6992 18.7148 11.582C18.7148 11.9258 18.6328 12.25 18.4688 12.5547C18.3047 12.8516 18.0859 13.0938 17.8125 13.2812C17.5469 13.4688 17.2578 13.5625 16.9453 13.5625C16.6562 13.5625 16.4375 13.5195 16.2891 13.4336C16.1484 13.3477 16.0234 13.2617 15.9141 13.1758C15.8125 13.082 15.668 13.0352 15.4805 13.0352C15.3164 13.0352 15.1328 13.1523 14.9297 13.3867C14.7344 13.6211 14.543 13.9219 14.3555 14.2891C14.168 14.6562 14.0039 15.0469 13.8633 15.4609C13.7305 15.8672 13.6484 16.2422 13.6172 16.5859C13.5859 16.9766 13.5 17.3242 13.3594 17.6289C13.2266 17.9258 13.0352 18.1602 12.7852 18.332C12.5352 18.4961 12.2109 18.5781 11.8125 18.5781ZM20.707 16.3516C20.8398 16.3516 20.9531 16.3047 21.0469 16.2109C21.1406 16.1172 21.1875 16.0078 21.1875 15.8828C21.1875 15.75 21.1406 15.6406 21.0469 15.5547C20.9531 15.4609 20.8398 15.4141 20.707 15.4141C20.582 15.4141 20.4727 15.4609 20.3789 15.5547C20.2852 15.6406 20.2383 15.75 20.2383 15.8828C20.2383 16.0078 20.2852 16.1172 20.3789 16.2109C20.4727 16.3047 20.582 16.3516 20.707 16.3516ZM22.4531 17.8633C22.5703 17.8633 22.6719 17.8203 22.7578 17.7344C22.8438 17.6484 22.8867 17.5469 22.8867 17.4297C22.8867 17.3047 22.8438 17.1992 22.7578 17.1133C22.6719 17.0273 22.5703 16.9844 22.4531 16.9844C22.3281 16.9844 22.2227 17.0273 22.1367 17.1133C22.0586 17.1992 22.0195 17.3047 22.0195 17.4297C22.0195 17.5469 22.0586 17.6484 22.1367 17.7344C22.2227 17.8203 22.3281 17.8633 22.4531 17.8633ZM12.0234 6.09766L9.25781 4.98438L9.52734 4.33984L12.2812 5.44141L12.0234 6.09766ZM19.3008 24.0625C18.4492 24.0625 17.7734 23.8828 17.2734 23.5234C16.7812 23.1719 16.5352 22.6914 16.5352 22.082C16.5352 21.6758 16.6289 21.2461 16.8164 20.793L15.457 16.7734L16.2422 16.3281L17.7305 20.7344C17.6445 20.9375 17.5781 21.1523 17.5312 21.3789C17.4922 21.6055 17.4727 21.7891 17.4727 21.9297C17.4727 22.3516 17.625 22.6562 17.9297 22.8438C18.2344 23.0312 18.7305 23.125 19.418 23.125C20.293 23.125 21.1719 23.0078 22.0547 22.7734C22.9453 22.5391 23.7617 22.2305 24.5039 21.8477C25.2539 21.457 25.8555 21.0312 26.3086 20.5703C26.7617 20.1016 26.9883 19.6406 26.9883 19.1875C26.9883 18.8438 26.8633 18.5508 26.6133 18.3086C26.3711 18.0586 26.0977 17.9336 25.793 17.9336L22.6289 8.08984L23.4844 7.82031L26.5078 17.2422C26.9375 17.3828 27.2812 17.6328 27.5391 17.9922C27.7969 18.3438 27.9258 18.7422 27.9258 19.1875C27.9258 19.7891 27.6797 20.3789 27.1875 20.957C26.6953 21.5352 26.0352 22.0586 25.207 22.5273C24.3867 22.9961 23.4648 23.3672 22.4414 23.6406C21.418 23.9219 20.3711 24.0625 19.3008 24.0625ZM19.4414 20.5C19.3086 20.5 19.1836 20.4883 19.0664 20.4648L16.6523 13.3633L18.0469 12.6484V10.375L20.4141 8.67578L21.5156 8.83984L24.5625 18.4258C24.4453 18.6367 24.1914 18.8633 23.8008 19.1055C23.4102 19.3398 22.9531 19.5625 22.4297 19.7734C21.9062 19.9844 21.375 20.1602 20.8359 20.3008C20.3047 20.4336 19.8398 20.5 19.4414 20.5ZM20.8242 13.0352C20.9883 13.0352 21.125 12.9766 21.2344 12.8594C21.3438 12.7422 21.3984 12.6094 21.3984 12.4609C21.3984 12.3047 21.3438 12.1719 21.2344 12.0625C21.125 11.9453 20.9883 11.8867 20.8242 11.8867C20.6758 11.8867 20.5469 11.9453 20.4375 12.0625C20.3281 12.1719 20.2734 12.3047 20.2734 12.4609C20.2734 12.6094 20.3281 12.7422 20.4375 12.8594C20.5469 12.9766 20.6758 13.0352 20.8242 13.0352ZM12.6797 5.06641L10.9219 2.44141L11.4961 2.04297L13.2656 4.66797L12.6797 5.06641ZM17.918 11.0664L17.8359 9.96484C18.3125 9.77734 18.7852 9.53516 19.2539 9.23828C19.7305 8.94141 20.0664 8.64062 20.2617 8.33594C20.4414 8.36719 20.625 8.38281 20.8125 8.38281C21.4609 8.38281 22.0117 8.21484 22.4648 7.87891C22.9258 7.54297 23.1562 7.125 23.1562 6.625C23.1562 6.21094 22.9922 5.85938 22.6641 5.57031C22.3438 5.27344 21.9258 5.125 21.4102 5.125C21.3555 5.125 21.2773 5.12891 21.1758 5.13672C21.0742 5.14453 20.9922 5.15234 20.9297 5.16016C20.6641 4.94922 20.3789 4.79297 20.0742 4.69141C19.7695 4.58984 19.4805 4.53906 19.207 4.53906C18.3164 4.53906 17.6133 5.00781 17.0977 5.94531C16.8398 5.89844 16.5938 5.875 16.3594 5.875C15.7734 5.875 15.2539 6.03906 14.8008 6.36719C14.3555 6.6875 14.0078 7.13672 13.7578 7.71484L12.8906 7.42188C13.2109 6.64844 13.6367 6.05859 14.168 5.65234C14.707 5.23828 15.3828 5.03125 16.1953 5.03125C16.2656 5.03125 16.3398 5.03516 16.418 5.04297C16.4961 5.04297 16.5664 5.05078 16.6289 5.06641C16.8945 4.58203 17.2695 4.21875 17.7539 3.97656C18.2383 3.72656 18.7422 3.60156 19.2656 3.60156C19.6016 3.60156 19.9258 3.64844 20.2383 3.74219C20.5586 3.83594 20.8516 3.99609 21.1172 4.22266C21.2031 4.20703 21.2852 4.19922 21.3633 4.19922C21.4414 4.19141 21.5195 4.1875 21.5977 4.1875C22.2695 4.1875 22.8516 4.40625 23.3438 4.84375C23.8438 5.28125 24.0938 5.875 24.0938 6.625C24.0938 7.42969 23.7852 8.06641 23.168 8.53516C22.5508 8.99609 21.7266 9.22656 20.6953 9.22656C20.3594 9.57812 19.9336 9.92969 19.418 10.2812C18.9102 10.6328 18.4102 10.8945 17.918 11.0664ZM14.625 4.38672L13.9219 4.32812L14.1797 1.60938L14.8828 1.67969L14.625 4.38672ZM25.4883 15.6133L25.2539 14.9102C25.8008 14.7305 26.1758 14.5508 26.3789 14.3711C26.582 14.1836 26.6836 13.9453 26.6836 13.6562C26.6836 13.4297 26.6484 13.1445 26.5781 12.8008C26.5156 12.457 26.4258 12.1133 26.3086 11.7695C26.1992 11.4258 26.0742 11.1367 25.9336 10.9023C25.8008 10.668 25.668 10.5508 25.5352 10.5508C25.4336 10.5508 25.2695 10.5977 25.043 10.6914C24.8164 10.7852 24.4844 10.9648 24.0469 11.2305L23.6484 10.5977C24.1406 10.293 24.5312 10.0859 24.8203 9.97656C25.1094 9.85938 25.3477 9.80078 25.5352 9.80078C25.8086 9.80078 26.0586 9.93359 26.2852 10.1992C26.5195 10.4648 26.7227 10.8047 26.8945 11.2188C27.0664 11.625 27.1992 12.0508 27.293 12.4961C27.3867 12.9336 27.4336 13.3281 27.4336 13.6797C27.4336 14.1406 27.2773 14.5234 26.9648 14.8281C26.6602 15.125 26.168 15.3867 25.4883 15.6133ZM26.0273 17.3477L25.7695 16.6445C26.6758 16.3164 27.3438 15.9102 27.7734 15.4258C28.2109 14.9336 28.4297 14.375 28.4297 13.75C28.4297 13.2422 28.3633 12.7031 28.2305 12.1328C28.0977 11.5547 27.9062 11.0117 27.6562 10.5039C27.4141 9.99609 27.1211 9.58203 26.7773 9.26172C26.4414 8.93359 26.0664 8.76953 25.6523 8.76953C25.4102 8.76953 25.1172 8.82422 24.7734 8.93359C24.4375 9.04297 24.0742 9.21094 23.6836 9.4375L23.3086 8.78125C23.7461 8.53125 24.168 8.34375 24.5742 8.21875C24.9883 8.08594 25.3477 8.01953 25.6523 8.01953C26.1914 8.01953 26.6797 8.19922 27.1172 8.55859C27.5547 8.91016 27.9258 9.375 28.2305 9.95312C28.5352 10.5312 28.7695 11.1562 28.9336 11.8281C29.0977 12.4922 29.1797 13.1367 29.1797 13.7617C29.1797 14.5508 28.9102 15.2539 28.3711 15.8711C27.8398 16.4883 27.0586 16.9805 26.0273 17.3477Z" fill="black"/>
</svg>
